<svg width="17" height="17" viewBox="0 0 17 17" fill="none" xmlns="http://www.w3.org/2000/svg">
<path d="M12.0497 4.2C12.0497 6.08884 10.4771 7.65 8.49971 7.65C6.52236 7.65 4.94971 6.08884 4.94971 4.2C4.94971 2.31116 6.52236 0.75 8.49971 0.75C10.4771 0.75 12.0497 2.31116 12.0497 4.2Z" stroke="white" stroke-width="1.5"/>
<path d="M8.5 9.5C12.5636 9.5 15.8419 12.33 16.2147 16.25H16.2066H16.1803H16.1538H16.1272H16.1004H16.0736H16.0466H16.0194H15.9922H15.9648H15.9373H15.9097H15.882H15.8541H15.8261H15.798H15.7698H15.7414H15.713H15.6844H15.6557H15.6268H15.5979H15.5689H15.5397H15.5104H15.481H15.4515H15.4219H15.3921H15.3623H15.3323H15.3023H15.2721H15.2418H15.2114H15.1809H15.1503H15.1195H15.0887H15.0578H15.0267H14.9956H14.9644H14.933H14.9016H14.87H14.8383H14.8066H14.7747H14.7428H14.7107H14.6786H14.6463H14.614H14.5815H14.549H14.5163H14.4836H14.4508H14.4179H14.3849H14.3518H14.3186H14.2853H14.2519H14.2184H14.1849H14.1512H14.1175H14.0837H14.0498H14.0158H13.9817H13.9476H13.9133H13.879H13.8446H13.8101H13.7755H13.7409H13.7061H13.6713H13.6364H13.6014H13.5664H13.5313H13.4961H13.4608H13.4254H13.39H13.3545H13.3189H13.2832H13.2475H13.2117H13.1758H13.1399H13.1039H13.0678H13.0317H12.9955H12.9592H12.9228H12.8864H12.8499H12.8134H12.7768H12.7401H12.7033H12.6665H12.6297H12.5928H12.5558H12.5187H12.4816H12.4445H12.4072H12.3699H12.3326H12.2952H12.2578H12.2203H12.1827H12.1451H12.1074H12.0697H12.0319H11.9941H11.9562H11.9183H11.8803H11.8423H11.8042H11.7661H11.7279H11.6897H11.6515H11.6132H11.5748H11.5364H11.498H11.4595H11.421H11.3824H11.3438H11.3051H11.2665H11.2277H11.189H11.1502H11.1113H11.0724H11.0335H10.9946H10.9556H10.9166H10.8775H10.8384H10.7993H10.7602H10.721H10.6818H10.6425H10.6033H10.564H10.5246H10.4853H10.4459H10.4065H10.367H10.3276H10.2881H10.2486H10.2091H10.1695H10.1299H10.0903H10.0507H10.0111H9.97141H9.93174H9.89204H9.85232H9.81259H9.77285H9.73308H9.6933H9.65351H9.6137H9.57388H9.53405H9.4942H9.45434H9.41447H9.37459H9.3347H9.29481H9.2549H9.21498H9.17506H9.13513H9.0952H9.05526H9.01531H8.97536H8.93541H8.89545H8.8555H8.81554H8.77557H8.73561H8.69565H8.65569H8.61573H8.57577H8.53582H8.49586H8.45592H8.41597H8.37603H8.3361H8.29617H8.25625H8.21634H8.17643H8.13654H8.09665H8.05677H8.0169H7.97705H7.9372H7.89737H7.85755H7.81775H7.77796H7.73818H7.69842H7.65868H7.61895H7.57924H7.53955H7.49987H7.46022H7.42058H7.38097H7.34137H7.3018H7.26225H7.22272H7.18322H7.14374H7.10428H7.06485H7.02545H6.98607H6.94672H6.9074H6.8681H6.82884H6.7896H6.7504H6.71122H6.67208H6.63297H6.59389H6.55484H6.51583H6.47685H6.43791H6.399H6.36013H6.3213H6.2825H6.24375H6.20503H6.16635H6.12771H6.08911H6.05055H6.01204H5.97356H5.93513H5.89675H5.85841H5.82011H5.78186H5.74365H5.70549H5.66738H5.62932H5.5913H5.55334H5.51542H5.47756H5.43974H5.40198H5.36427H5.32662H5.28901H5.25146H5.21397H5.17653H5.13915H5.10182H5.06455H5.02734H4.99019H4.95309H4.91606H4.87908H4.84217H4.80532H4.76853H4.7318H4.69514H4.65854H4.62201H4.58554H4.54913H4.5128H4.47653H4.44032H4.40419H4.36812H4.33213H4.2962H4.26035H4.22457H4.18885H4.15321H4.11765H4.08216H4.04674H4.0114H3.97613H3.94094H3.90583H3.87079H3.83583H3.80095H3.76615H3.73143H3.69679H3.66224H3.62776H3.59337H3.55906H3.52483H3.49069H3.45663H3.42266H3.38877H3.35497H3.32126H3.28763H3.2541H3.22065H3.1873H3.15403H3.12085H3.08777H3.05478H3.02188H2.98908H2.95636H2.92375H2.89123H2.8588H2.82647H2.79424H2.76211H2.73008H2.69814H2.6663H2.63457H2.60293H2.5714H2.53997H2.50864H2.47741H2.44629H2.41527H2.38436H2.35356H2.32286H2.29226H2.26178H2.2314H2.20114H2.17098H2.14093H2.11099H2.08116H2.05145H2.02185H1.99236H1.96299H1.93372H1.90458H1.87555H1.84664H1.81784H1.78916H1.7606H1.73216H1.70383H1.67563H1.64755H1.61959H1.59175H1.56403H1.53643H1.50896H1.48162H1.45439H1.4273H1.40033H1.37348H1.34677H1.32018H1.29372H1.26739H1.24119H1.21512H1.18918H1.16337H1.13769H1.11215H1.08674H1.06147H1.03633H1.01132H0.986452H0.961719H0.937123H0.912665H0.888345H0.864164H0.840123H0.816222H0.792462H0.786076C1.16262 12.3681 4.44183 9.5 8.5 9.5Z" stroke="white" stroke-width="1.5"/>
</svg>
